<svg width="24" height="24" viewBox="0 0 24 24" fill="none" xmlns="http://www.w3.org/2000/svg">
<path fill-rule="evenodd" clip-rule="evenodd" d="M20.3615 15.48C19.9601 15.1 19.729 14.5446 19.729 13.96V9.14C19.729 5.19 16.494 2 12.5 2C8.50598 2 5.27101 5.19 5.27101 9.14V13.96C5.27104 14.5446 5.03993 15.1 4.63847 15.48C3.274 16.83 4.24088 19.13 6.17463 19.13H9.6084C10.0465 20.4804 11.2035 21.3811 12.5 21.3811C13.7965 21.3811 14.9535 20.4804 15.3916 19.13H18.8254C20.7591 19.13 21.726 16.83 20.3615 15.48ZM12.5002 19.8799C11.9623 19.8776 11.4555 19.6009 11.1267 19.1299H13.8376C13.5192 19.5935 13.0263 19.8699 12.5002 19.8799ZM18.8338 17.63C19.1623 17.6629 19.4751 17.468 19.6199 17.14C19.6903 16.9424 19.6262 16.7173 19.4663 16.6C18.7855 15.9279 18.3919 14.9696 18.382 13.96V9.14C18.382 6.03 15.7434 3.5 12.5084 3.5C9.27345 3.5 6.63487 6.03 6.63487 9.14V13.96C6.62496 14.9696 6.23134 15.9279 5.55052 16.6C5.38725 16.7144 5.31926 16.9401 5.38787 17.14C5.53271 17.468 5.8455 17.6629 6.17402 17.63H18.8338Z" fill="#FCFCFC"/>
</svg>
