<svg width="40" height="40" viewBox="0 0 40 40" fill="none" xmlns="http://www.w3.org/2000/svg">
<circle cx="20" cy="20" r="19.5" stroke="url(#paint0_linear_667_636)"/>
<path d="M28.0505 19.47L21.0505 12.47C20.8575 12.2824 20.5792 12.212 20.3203 12.2853C20.0614 12.3586 19.8613 12.5645 19.7953 12.8253C19.7293 13.0862 19.8075 13.3624 20.0005 13.55L25.7105 19.25H12.4805C12.0663 19.25 11.7305 19.5858 11.7305 20C11.7305 20.4142 12.0663 20.75 12.4805 20.75H25.7005L20.0005 26.45C19.8575 26.5893 19.7769 26.7804 19.7769 26.98C19.7769 27.1796 19.8575 27.3707 20.0005 27.51C20.1383 27.6546 20.3307 27.7345 20.5305 27.73C20.7295 27.7309 20.9206 27.6516 21.0605 27.51L28.0605 20.51C28.3529 20.2172 28.3529 19.7428 28.0605 19.45L28.0505 19.47Z" fill="url(#paint1_linear_667_636)"/>
<defs>
<linearGradient id="paint0_linear_667_636" x1="1.60739e-07" y1="40" x2="40.8523" y2="0.8903" gradientUnits="userSpaceOnUse">
<stop stop-color="#626262"/>
<stop offset="1" stop-color="#D0D0D0"/>
</linearGradient>
<linearGradient id="paint1_linear_667_636" x1="11.7305" y1="27.7302" x2="27.5441" y2="11.5383" gradientUnits="userSpaceOnUse">
<stop stop-color="#626262"/>
<stop offset="1" stop-color="#D0D0D0"/>
</linearGradient>
</defs>
</svg>
