<svg width="32" height="32" viewBox="0 0 32 32" fill="none" xmlns="http://www.w3.org/2000/svg">
<circle cx="16" cy="16" r="16" fill="url(#paint0_linear_667_342)"/>
<path d="M16.1 25.8C15.6 25.8 15 25.6 14.6 25.2C8.1 19.5 8 19.4 8 19.3L7.9 19.2C6.7 18 6 16.3 6 14.6V14.4C6.1 10.8 9 8 12.6 8C13.7 8 15.2 8.6 16.1 9.8C17 8.6 18.6 8 19.7 8C23.3 8 26.1 10.8 26.3 14.4V14.6C26.3 16.4 25.6 18 24.4 19.3L24.3 19.4C24.2 19.5 23.4 20.2 17.7 25.3C17.2 25.6 16.7 25.8 16.1 25.8ZM9.5 19C9.9 19.4 11.9 20.8 15.6 24C15.9 24.3 16.3 24.3 16.6 24C20.4 20.6 22.6 18.7 23.1 18.3L23.2 18.2C24.2 17.2 24.7 15.9 24.7 14.6V14.4C24.6 11.6 22.4 9.5 19.6 9.5C18.9 9.5 17.5 10 17 11.1C16.8 11.5 16.4 11.7 16 11.7C15.6 11.7 15.2 11.5 15 11.1C14.5 10.1 13.2 9.5 12.4 9.5C9.7 9.5 7.4 11.7 7.3 14.4V14.7C7.3 16 7.9 17.3 8.8 18.2L9.5 19Z" fill="#FCFCFC"/>
<defs>
<linearGradient id="paint0_linear_667_342" x1="1.28591e-07" y1="32" x2="32.6819" y2="0.71224" gradientUnits="userSpaceOnUse">
<stop stop-color="#A65922"/>
<stop offset="1" stop-color="#FF9F2E"/>
</linearGradient>
</defs>
</svg>
