<svg width="24" height="24" viewBox="0 0 24 24" fill="none" xmlns="http://www.w3.org/2000/svg">
<path d="M6.29416 4.96556C3.62734 6.90311 2.29393 7.87189 1.77023 9.30291C1.72821 9.41771 1.69043 9.534 1.65694 9.65157C1.23949 11.1171 1.74881 12.6846 2.76744 15.8197C3.78608 18.9547 4.29539 20.5222 5.49454 21.4625C5.59073 21.5379 5.68966 21.6098 5.79113 21.678C6.21778 21.9647 6.68805 22.1546 7.25049 22.2805V18.8197C7.25049 16.1963 9.37714 14.0697 12.0005 14.0697C14.6238 14.0697 16.7505 16.1963 16.7505 18.8197V22.2805C17.3129 22.1546 17.7832 21.9647 18.2099 21.678C18.3113 21.6098 18.4103 21.5379 18.5065 21.4625C19.7056 20.5222 20.2149 18.9547 21.2335 15.8197C22.2522 12.6846 22.7615 11.1171 22.344 9.65157C22.3106 9.534 22.2728 9.41771 22.2308 9.30291C21.7071 7.87189 20.3737 6.90312 17.7068 4.96557C15.04 3.02801 13.7066 2.05923 12.1838 2.00336C12.0616 1.99888 11.9394 1.99888 11.8172 2.00336C10.2944 2.05923 8.96097 3.02801 6.29416 4.96556Z" fill="url(#paint0_linear_642_329)"/>
<path d="M15.2505 22.4732V18.8197C15.2505 17.0247 13.7954 15.5697 12.0005 15.5697C10.2056 15.5697 8.75049 17.0247 8.75049 18.8197V22.4732C9.62345 22.5279 10.6797 22.5279 12.0005 22.5279C13.3213 22.5279 14.3775 22.5279 15.2505 22.4732Z" fill="url(#paint1_linear_642_329)"/>
<defs>
<linearGradient id="paint0_linear_642_329" x1="1.51074" y1="22.5279" x2="22.4909" y2="2.00071" gradientUnits="userSpaceOnUse">
<stop stop-color="#626262"/>
<stop offset="1" stop-color="#D0D0D0"/>
</linearGradient>
<linearGradient id="paint1_linear_642_329" x1="1.51074" y1="22.5279" x2="22.4909" y2="2.00071" gradientUnits="userSpaceOnUse">
<stop stop-color="#626262"/>
<stop offset="1" stop-color="#D0D0D0"/>
</linearGradient>
</defs>
</svg>
