<svg width="32" height="32" viewBox="0 0 32 32" fill="none" xmlns="http://www.w3.org/2000/svg">
<circle cx="16" cy="16" r="16" fill="url(#paint0_linear_667_518)"/>
<path d="M11.99 13.53H18.69C19.0629 13.4864 19.3441 13.1705 19.3441 12.795C19.3441 12.4195 19.0629 12.1036 18.69 12.06H11.99C11.7069 12.0269 11.43 12.1593 11.2781 12.4004C11.1261 12.6415 11.1261 12.9485 11.2781 13.1896C11.43 13.4307 11.7069 13.5631 11.99 13.53Z" fill="#FCFCFC"/>
<path d="M11.99 21.53H16.77C17.0531 21.5631 17.33 21.4307 17.4819 21.1896C17.6339 20.9485 17.6339 20.6415 17.4819 20.4004C17.33 20.1593 17.0531 20.0269 16.77 20.06H11.99C11.7069 20.0269 11.43 20.1593 11.2781 20.4004C11.1261 20.6415 11.1261 20.9485 11.2781 21.1896C11.43 21.4307 11.7069 21.5631 11.99 21.53Z" fill="#FCFCFC"/>
<path d="M20.6 17.53H11.99C11.7069 17.5631 11.43 17.4307 11.2781 17.1896C11.1261 16.9485 11.1261 16.6415 11.2781 16.4004C11.43 16.1593 11.7069 16.0269 11.99 16.06H20.6C20.9729 16.1036 21.2541 16.4195 21.2541 16.795C21.2541 17.1705 20.9729 17.4864 20.6 17.53Z" fill="#FCFCFC"/>
<path fill-rule="evenodd" clip-rule="evenodd" d="M19.79 26.59H12.79C10.1429 26.5845 7.99999 24.4371 8 21.79V10.79C8.0055 8.14684 10.1468 6.0055 12.79 6H19.79C22.4371 5.99999 24.5845 8.14294 24.59 10.79V21.79C24.59 23.063 24.0843 24.2839 23.1841 25.1841C22.2839 26.0843 21.063 26.59 19.79 26.59ZM12.79 7.59C11.025 7.59549 9.59549 9.02497 9.59 10.79V21.79C9.58999 23.5589 11.0211 24.9945 12.79 25H19.79C21.5628 25 23 23.5628 23 21.79V10.79C22.9945 9.02107 21.5589 7.58999 19.79 7.59H12.79Z" fill="#FCFCFC"/>
<defs>
<linearGradient id="paint0_linear_667_518" x1="1.28591e-07" y1="32" x2="32.6819" y2="0.71224" gradientUnits="userSpaceOnUse">
<stop stop-color="#A65922"/>
<stop offset="1" stop-color="#FF9F2E"/>
</linearGradient>
</defs>
</svg>
