<svg width="24" height="24" viewBox="0 0 24 24" fill="none" xmlns="http://www.w3.org/2000/svg">
<g opacity="0.5">
<path fill-rule="evenodd" clip-rule="evenodd" d="M4.06176 7.66957C5.48796 4.24494 8.82961 2.01028 12.5393 2.00037C16.5375 1.97932 20.0926 4.5403 21.339 8.33934C22.5853 12.1384 21.2381 16.3076 18.0044 18.6591C14.7707 21.0105 10.3893 21.007 7.15934 18.6504L4.27934 21.5304C3.98652 21.8228 3.51216 21.8228 3.21934 21.5304C2.92689 21.2376 2.92689 20.7632 3.21934 20.4704L6.00934 17.6804C3.40324 15.0402 2.63556 11.0942 4.06176 7.66957ZM5.39891 14.1693C6.59638 17.055 9.41508 18.9344 12.5393 18.9304V18.8904C16.7796 18.885 20.2219 15.4606 20.2493 11.2204C20.2534 8.09611 18.374 5.27742 15.4883 4.07994C12.6026 2.88247 9.27967 3.54232 7.07048 5.75152C4.86129 7.96071 4.20144 11.2836 5.39891 14.1693Z" fill="url(#paint0_linear_667_210)"/>
</g>
<defs>
<linearGradient id="paint0_linear_667_210" x1="3" y1="21.7497" x2="23.1026" y2="3.43136" gradientUnits="userSpaceOnUse">
<stop stop-color="#626262"/>
<stop offset="1" stop-color="#D0D0D0"/>
</linearGradient>
</defs>
</svg>
